PathFileType	4	(X/Y/Z)	RBDS026\RBDS026runT35.trc
DataRate	CameraRate	NumFrames	NumMarkers	Units	OrigDataRate	OrigDataStartFrame	OrigNumFrames
150.000000	150.000000	4	33	mm	150.000000	1125	4500
Frame#	Time	L.ASIS			L.Heel.Bottom			L.Heel.Lateral			L.Heel.Top			L.Iliac.Crest			L.MT1			L.MT5			L.PSIS			L.Shank.Bottom.Lateral			L.Shank.Bottom.Medial			L.Shank.Top.Lateral			L.Shank.Top.Medial			L.Thigh.Bottom.Lateral			L.Thigh.Bottom.Medial			L.Thigh.Top.Lateral			L.Thigh.Top.Medial			R.ASIS			R.ASY			R.Heel.Bottom			R.Heel.Lateral			R.Heel.Top			R.Iliac.Crest			R.MT1			R.MT5			R.PSIS			R.Shank.Bottom.Lateral			R.Shank.Bottom.Medial			R.Shank.Top.Lateral			R.Shank.Top.Medial			R.Thigh.Bottom.Lateral			R.Thigh.Bottom.Medial			R.Thigh.Top.Lateral			R.Thigh.Top.Medial			
		X1	Y1	Z1	X2	Y2	Z2	X3	Y3	Z3	X4	Y4	Z4	X5	Y5	Z5	X6	Y6	Z6	X7	Y7	Z7	X8	Y8	Z8	X9	Y9	Z9	X10	Y10	Z10	X11	Y11	Z11	X12	Y12	Z12	X13	Y13	Z13	X14	Y14	Z14	X15	Y15	Z15	X16	Y16	Z16	X17	Y17	Z17	X18	Y18	Z18	X19	Y19	Z19	X20	Y20	Z20	X21	Y21	Z21	X22	Y22	Z22	X23	Y23	Z23	X24	Y24	Z24	X25	Y25	Z25	X26	Y26	Z26	X27	Y27	Z27	X28	Y28	Z28	X29	Y29	Z29	X30	Y30	Z30	X31	Y31	Z31	X32	Y32	Z32	X33	Y33	Z33	

1126	7.500000000000001	2151.478449510967	985.7441278804773	849.0580423048555	1990.196513524417	31.33060669930037	951.6024248500149	2019.281762064516	50.45886441284144	900.7554872247247	2002.060201632424	77.94169981274622	950.9995290232832	2058.104644408301	1047.097911962734	804.1540868485162	2220.192444835842	46.6093415018881	961.751672737738	2167.163592110067	40.81050854993057	858.6146879158254	1979.603693150718	1024.343975111012	933.2119186002047	2104.741456542019	153.6823407866808	874.3766404898576	2061.402745503814	174.5746767639882	891.812904110698	2130.847802218141	224.2145739029355	844.1948269358583	2086.930254328109	249.1823918948537	860.8947637223607	2176.282715966508	595.5242914751806	802.4700943587097	2119.513649019955	575.1006095899702	842.9292514931018	2127.344539817665	692.3212332411882	782.2959123324267	2074.605937350013	673.3651345993718	822.9194229289288	2151.966556690523	962.2249042100906	1089.385636163664	1652.680696705177	370.0900909741099	1035.503638500452	1659.424468675273	552.7313258771536	977.572652367097	1664.094955851282	529.4084375342301	1031.67997978765	1699.233660658768	531.2140608922653	986.5593960379771	2097.598786744605	1034.198907694163	1131.118925164272	1603.342421745203	334.4110245557033	991.1914023361353	1595.622120681759	390.5030571833934	1087.484849001194	1984.636647995019	1018.172496942856	1030.048393177678	1758.642124615671	471.3856722771654	1074.501389122361	1764.639394927753	511.6047254038464	1037.614439240868	1835.851458205194	483.6480999311536	1097.992938474594	1841.081235834226	521.4608882443898	1060.464064217289	2109.957954810202	542.7350984313312	1153.941870751314	2047.362393409214	537.8826194095938	1118.914059253033	2096.623896563586	652.2644419683932	1162.948016648545	2033.80926570628	646.2091012625367	1135.014385756142	
1127	7.506666666666667	2149.441041158838	983.8545609168142	848.0037314585383	1966.935401640733	31.45695546114108	951.4341603608713	1995.93300236668	50.68683947415827	900.5366465525767	1978.682002165471	78.13008943109782	950.7532391397298	2055.658252495798	1044.845561765495	803.5904902241779	2196.572007770837	47.44881359386581	961.105413304765	2143.6362317316	40.97185423513497	858.2831450114094	1977.754852299582	1023.438451426962	932.947812383172	2083.768034451276	153.1229365286489	873.8702030084761	2041.121781704572	175.3832777810013	891.2057065303824	2112.112065772494	222.7836390995614	843.7113060019415	2068.974117421685	249.1181963921574	860.3485411733702	2167.857338898319	591.8616041675782	801.9103286907034	2110.743589649974	572.5606404616143	842.4709831439384	2120.84803016582	689.6143520255864	781.9637281573122	2067.807967726942	671.7081432105123	822.7760928501986	2149.535321100426	961.5678709632408	1089.005983848441	1670.169136301323	365.9181823007549	1038.327025007873	1670.790803224476	549.2708390871992	983.0025590486817	1677.381697252615	525.4616804131107	1036.729092016513	1711.386825864995	528.6666737986953	990.9440875748014	2093.049651571866	1033.55548425826	1130.565743068566	1620.725567789934	329.546885662934	994.3974532491555	1613.622323442611	384.0285211247495	1091.917564608723	1982.465224567111	1017.245774325465	1029.540527500415	1774.226023550144	468.5300528382825	1077.109745513295	1779.253454588385	509.2415301466385	1040.696210207775	1851.540177525535	481.4391582383875	1099.845902767421	1855.87534340919	519.6065478392022	1062.593490028416	2122.398617321349	543.3384445205246	1152.669958230134	2059.798332368055	536.1976588280857	1117.996309847887	2105.032240379358	652.2411505394052	1161.966784795311	2042.234971772499	643.8842437453505	1134.612377394438	
1128	7.513333333333334	2147.665517695431	982.3574499325305	847.0607806385073	1943.531960214449	31.58348897013355	951.2186619554316	1972.437945588648	50.83944464670829	900.2447256532068	1955.182281458514	78.31880919610708	950.4080336137268	2053.667138690875	1043.414162567643	803.0180342379286	2172.881440530021	48.05433800571053	960.3699823270592	2119.992054062675	40.89348792521208	857.856941006869	1976.158262389759	1023.221168733157	932.4155934299447	2062.380491458943	152.5923771567458	873.2443485582244	2020.41253314022	176.0447169496318	890.5247688415574	2092.696008758234	221.4149530350875	843.1279927832082	2050.303686861617	248.9371410184117	859.7209962977594	2158.458906853232	588.5393950348082	801.2546212507315	2100.848316613648	570.4973885034282	841.7249988923194	2113.742102007782	687.3939506076559	781.5956432015813	2060.335778827824	670.6749395352538	822.5314967817117	2147.215424867684	962.0303148939073	1088.758912513694	1688.062336660714	360.6652517214984	1041.076157311853	1681.658404533439	544.4577391027308	988.1158951508007	1690.258599020437	520.3184463630224	1041.426837887508	1723.094311323126	525.0209184285211	995.0186711146272	2088.528241335599	1033.880282318215	1129.947512607968	1638.878400214887	323.2424245021501	997.4971611086223	1632.028441228309	376.2390234602998	1096.118365870584	1980.481871936131	1017.095088736054	1028.833436813102	1789.653928865126	464.9972897509724	1079.48592954699	1793.471672333519	506.2975726444913	1043.623985710238	1866.93481512675	479.0441282026431	1101.557694739511	1870.124497522094	517.667244333897	1064.687475591023	2134.759540761489	545.2865664391661	1151.236343810936	2072.280755357865	535.8385996712211	1116.868237571009	2113.320096346484	653.3967284647761	1160.899815421686	2050.692165183559	642.7270153448578	1134.030283572831	
1129	7.52	2146.185131254993	981.2456898475573	846.2170397702988	1919.979509596615	31.836206372265	950.9748335714237	1948.816959539502	51.04583822180848	899.9122155688046	1931.586062276555	78.62804352243973	950.0019378794331	2052.224910249021	1042.768864081715	802.4221602048309	2149.133779138138	48.39195273829577	959.6323706857498	2096.23744386132	40.63584073283687	857.4022249636449	1974.851331916501	1023.679233825773	931.6234176791885	2040.637455385968	152.1939595789587	872.5733898839271	1999.32386045599	176.6764926357847	889.8514925704196	2072.676768052985	220.2290160661594	842.5064427987975	2030.98689044024	248.7777373720803	859.0764009522605	2148.13086101651	585.6717771529941	800.5459492307955	2089.931072685907	569.0317552389829	840.8063625543	2106.040975080155	685.728905060413	781.2205723787728	2052.248570853255	670.337187596551	822.2558441436976	2145.088652879293	963.4894831569278	1088.632681776167	1706.313696813006	354.4198542130695	1043.72941441491	1692.056738857916	538.2327610666702	992.7811681814778	1702.72805320157	513.9804725437098	1045.658670149191	1734.348499011836	520.2232134416122	998.6770263974712	2084.228277025841	1034.9908887406	1129.280245513353	1657.771099875517	315.5873341964756	1000.50701339671	1650.824400089986	367.2967455468865	1100.052691137723	1978.725474628784	1017.680584311929	1027.923328975604	1804.849490257498	460.8108864839891	1081.592391723409	1807.236164063414	502.7567175053667	1046.335946177811	1881.952355816161	476.4651656611018	1103.090601986571	1883.761464041249	515.6143043591294	1066.699346578293	2146.915493612565	548.5509174932655	1149.678360561504	2084.666189977617	536.8016341239208	1115.595209515873	2121.425049859592	655.7135948586782	1159.777255865374	2059.093781472969	642.7447912262141	1133.326864407427	
